External Loads File
version=1
nRows=54
nColumns=13
Range=5.000000e-03-10 seconds
endheader
time 	forceRightX 	forceRightY 	forceRightZ 	pointRightX 	pointRightY 	pointRightZ 	forceLeftX 	forceLeftY 	forceLeftZ 	pointLeftX 	pointLeftY 	pointLeftZ 		
7.505000 92.144674 755.496987 -0.000000 0.430613 0.196155 -0.191012 7.940757 -62.510116 -0.000000 0.245126 0.445645 -0.443450
7.510000 109.611710 764.907845 -0.000000 0.422749 0.189138 -0.190927 1.973360 -63.803227 -0.000000 0.253552 0.453150 -0.443618
7.515000 125.990302 772.744104 -0.000000 0.414517 0.182666 -0.190795 -4.445520 -65.021660 -0.000000 0.261765 0.460040 -0.442504
7.520000 144.502430 778.093589 -0.000000 0.405903 0.176858 -0.190830 -11.439877 -66.073752 -0.000000 0.271298 0.466408 -0.442431
7.525000 160.780767 781.338321 -0.000000 0.397447 0.171569 -0.190963 -18.534450 -66.850764 -0.000000 0.280638 0.472291 -0.442799
7.530000 177.349432 781.616121 -0.000000 0.388224 0.166842 -0.190698 -25.849864 -67.020745 -0.000000 0.290174 0.477470 -0.442837
7.535000 192.599833 778.787915 -0.000000 0.378948 0.162842 -0.190234 -33.111472 -66.177415 -0.000000 0.299986 0.481927 -0.442184
7.540000 206.385289 772.370382 -0.000000 0.369526 0.159273 -0.190299 -40.086167 -63.799911 -0.000000 0.309852 0.485799 -0.441857
7.545000 218.659146 761.803937 -0.000000 0.359890 0.156478 -0.190422 -46.478728 -59.357439 -0.000000 0.319825 0.489088 -0.441538
7.550000 228.938473 746.637837 -0.000000 0.350147 0.154162 -0.190378 -51.929855 -52.415091 -0.000000 0.329830 0.491674 -0.441451
7.555000 237.338111 726.303330 -0.000000 0.340256 0.152700 -0.189915 -56.114744 -42.603620 -0.000000 0.339971 0.493487 -0.441255
7.560000 242.907012 700.725369 -0.000000 0.330378 0.151994 -0.189576 -58.649756 -29.765861 -0.000000 0.349986 0.494679 -0.441083
7.565000 245.704639 669.712962 -0.000000 0.320523 0.151476 -0.189008 -59.258419 -13.842300 -0.000000 0.359979 0.495205 -0.441054
7.570000 245.171476 633.479134 -0.000000 0.310687 0.152367 -0.188820 -57.708750 4.970720 -0.000000 0.369502 0.495111 -0.440921
7.575000 241.277988 592.231670 -0.000000 0.300929 0.153709 -0.188506 -53.919368 26.319564 -0.000000 0.378584 0.494418 -0.440964
7.580000 234.872085 545.976671 -0.000000 0.291155 0.155856 -0.188257 -47.926621 49.799950 -0.000000 0.387475 0.493193 -0.441142
7.585000 225.474349 495.418318 -0.000000 0.281590 0.158928 -0.187693 -39.996932 74.799693 -0.000000 0.395740 0.490937 -0.441091
7.590000 213.470864 441.072540 -0.000000 0.272401 0.162394 -0.187579 -30.545357 100.693622 -0.000000 0.403770 0.487809 -0.441414
7.595000 199.216059 383.626453 -0.000000 0.263510 0.166818 -0.187548 -20.136067 126.896850 -0.000000 0.411365 0.483910 -0.441847
7.600000 182.509357 324.251520 -0.000000 0.254946 0.171845 -0.187623 -9.638313 153.119213 -0.000000 0.418283 0.479485 -0.442116
7.605000 163.840565 263.993830 -0.000000 0.246927 0.177697 -0.187659 0.173230 179.548607 -0.000000 0.424676 0.474562 -0.442281
7.610000 143.971988 203.846004 -0.000000 0.239154 0.184012 -0.187777 8.794350 206.634487 -0.000000 0.430714 0.468773 -0.442837
7.615000 123.151577 145.108270 -0.000000 0.231835 0.190694 -0.188159 15.516729 234.834525 -0.000000 0.436383 0.462155 -0.443159
7.620000 101.867096 88.828282 -0.000000 0.225047 0.197820 -0.188069 19.865650 264.358198 -0.000000 0.441625 0.454807 -0.443350
7.625000 80.721811 35.682685 -0.000000 0.218584 0.205329 -0.188129 22.019503 294.941759 -0.000000 0.447089 0.446958 -0.443668
7.630000 59.994939 -13.548200 -0.000000 0.212532 0.213376 -0.188166 21.464684 325.973997 -0.000000 0.451958 0.438635 -0.443678
7.635000 39.911258 -58.482332 -0.000000 0.206892 0.222025 -0.188161 18.927776 356.528530 -0.000000 0.456811 0.429710 -0.443675
7.640000 20.334510 -98.482689 -0.000000 0.201641 0.231244 -0.188009 14.768410 385.696778 -0.000000 0.461493 0.420162 -0.443633
7.645000 1.399753 -132.664505 -0.000000 0.197496 0.240646 -0.188294 8.272685 412.769770 -0.000000 0.465890 0.410307 -0.443733
7.650000 -17.316258 -159.977171 -0.000000 0.193185 0.250444 -0.188992 1.200447 437.264241 -0.000000 0.470139 0.400147 -0.443738
7.655000 -34.764818 -179.384684 -0.000000 0.190126 0.259730 -0.189106 -8.199163 459.076533 -0.000000 0.473987 0.389803 -0.443741
7.660000 -50.843799 -190.125670 -0.000000 0.187564 0.269191 -0.189084 -17.989520 478.347557 -0.000000 0.477346 0.379224 -0.443634
7.665000 -64.414203 -192.279955 -0.000000 0.185538 0.278425 -0.188928 -28.473168 495.422315 -0.000000 0.480176 0.368592 -0.443556
7.670000 -74.915156 -186.699631 -0.000000 0.184263 0.287944 -0.189039 -38.546503 510.908584 -0.000000 0.482501 0.357870 -0.443466
7.675000 -81.926083 -175.040501 -0.000000 0.183484 0.297814 -0.189155 -47.344194 525.660559 -0.000000 0.484290 0.346847 -0.443476
7.680000 -85.050541 -159.569087 -0.000000 0.183033 0.307928 -0.189224 -55.011469 540.567323 -0.000000 0.485678 0.335706 -0.444117
7.685000 -84.492221 -142.465016 -0.000000 0.183311 0.318389 -0.189245 -61.287945 556.451880 -0.000000 0.486299 0.324516 -0.443581
7.690000 -80.881498 -125.438284 -0.000000 0.183978 0.329160 -0.189533 -65.739024 573.936333 -0.000000 0.486178 0.313301 -0.443765
7.695000 -74.935292 -109.672722 -0.000000 0.185269 0.339927 -0.189737 -68.603177 593.330210 -0.000000 0.485555 0.302072 -0.443726
7.700000 -67.630238 -95.641599 -0.000000 0.187268 0.350879 -0.189869 -69.200635 614.828641 -0.000000 0.484441 0.290844 -0.443677
7.705000 -59.618571 -83.567232 -0.000000 0.189839 0.361603 -0.190240 -68.373592 638.251796 -0.000000 0.482588 0.279817 -0.443657
7.710000 -51.605439 -73.275709 -0.000000 0.193024 0.372168 -0.190534 -65.909638 663.376713 -0.000000 0.480067 0.269091 -0.443561
7.715000 -44.141630 -64.457649 -0.000000 0.196701 0.382797 -0.190793 -60.990533 689.926356 -0.000000 0.476928 0.258530 -0.443517
7.720000 -37.433771 -56.949582 -0.000000 0.201044 0.393066 -0.191089 -54.535371 717.409779 -0.000000 0.473136 0.248340 -0.443165
7.725000 -31.755665 -50.575941 -0.000000 0.205803 0.403162 -0.191202 -46.061806 745.427318 -0.000000 0.468717 0.238422 -0.443280
7.730000 -27.316785 -45.274528 -0.000000 0.211250 0.413009 -0.191644 -35.318963 773.455389 -0.000000 0.463753 0.228773 -0.443156
7.735000 -24.286500 -41.028394 -0.000000 0.217308 0.422658 -0.191946 -22.230958 800.836287 -0.000000 0.458162 0.219548 -0.442967
7.740000 -22.768163 -37.819179 -0.000000 0.223907 0.431860 -0.192295 -7.126374 826.817255 -0.000000 0.452011 0.210681 -0.442859
7.745000 -22.814616 -35.586092 -0.000000 0.230985 0.440683 -0.192615 9.937246 850.648015 -0.000000 0.445363 0.202209 -0.442681
7.750000 -24.409585 -34.239231 -0.000000 0.238755 0.448992 -0.192977 28.821835 871.634331 -0.000000 0.438199 0.194345 -0.442450
7.755000 -27.454802 -33.687029 -0.000000 0.246672 0.456824 -0.193585 48.629426 889.235563 -0.000000 0.430543 0.186914 -0.442250
7.760000 -31.836882 -33.797366 -0.000000 0.255180 0.464036 -0.193961 69.458433 903.045250 -0.000000 0.422514 0.179973 -0.442119
7.765000 -37.318043 -34.500716 -0.000000 0.263774 0.470692 -0.194693 89.502695 912.969947 -0.000000 0.414163 0.173718 -0.441990
7.770000 -43.803407 -35.523698 -0.000000 0.273460 0.476967 -0.194378 111.631750 918.629302 -0.000000 0.405371 0.167936 -0.441911
